#!OML:ASF I:\Actors\actors\Patient Classification 2\Patient 1\Session 1\actor1.ASF
:FULLY-SPECIFIED
:DEGREES
292
root -0.933576 17.1104 4.75435 16.1 -3.15257 -9.79973
lowerback 33.6371 0.776343 -6.48975
upperback 2.55778 -2.55001 -6.81944
thorax -14.5705 -0.931745 -2.88409
lowerneck -19.7312 -2.34675 -5.00408
upperneck 24.6813 -3.60442 6.80656
head 11.5436 -1.23576 2.79772
rclavicle -4.6118e-014 3.18055e-015
rhumerus -96.4794 37.5867 -73.9188
rradius 127.584
rwrist -52.4394
rhand 52.9962 -59.1403
rfingers 7.12502
rthumb 71.7774 -48.1687
lclavicle -4.6118e-014 3.18055e-015
lhumerus -76.2409 -45.6023 56.9817
lradius 137.873
lwrist 76.055
lhand 50.1671 2.41628
lfingers 7.12502
lthumb 70.0606 -2.04305
rfemur -40.5888 -9.89189 27.4072
rtibia 53.0799
rfoot -22.8708 8.83809
rtoes -15.319
lfemur -47.1531 18.2056 -4.96466
ltibia 62.7456
lfoot -24.1985 -4.28501
ltoes -57.1181
293
root -0.94327 17.1051 4.77525 16.3394 -3.1296 -9.71471
lowerback 32.9768 0.848968 -6.60915
upperback 2.46768 -2.42402 -6.74018
thorax -14.3827 -0.873131 -2.78363
lowerneck -19.7791 -2.53959 -5.3912
upperneck 24.6701 -3.8136 7.03712
head 11.5774 -1.33624 2.91692
rclavicle 0 -7.31528e-014
rhumerus -95.3017 35.4453 -75.4487
rradius 127.627
rwrist -52.7715
rhand 53.0265 -57.2822
rfingers 7.12502
rthumb 71.7944 -46.2344
lclavicle 0 -7.31528e-014
lhumerus -74.4093 -43.2066 57.7144
lradius 137.545
lwrist 75.885
lhand 44.9608 2.54146
lfingers 7.12502
lthumb 66.3569 7.2839
rfemur -40.7529 -9.63426 27.3403
rtibia 53.0766
rfoot -23.3814 8.55784
rtoes -16.3104
lfemur -47.3167 18.1177 -5.08724
ltibia 62.6872
lfoot -24.4213 -4.05357
ltoes -57.6094
294
root -0.949456 17.1006 4.79531 16.5532 -3.12635 -9.62834
lowerback 32.351 0.933555 -6.67458
upperback 2.36817 -2.27874 -6.73214
thorax -14.2261 -0.810534 -2.79732
lowerneck -19.7364 -2.71954 -5.62659
upperneck 24.5889 -4.07157 7.32661
head 11.5704 -1.43899 3.02294
rclavicle 7.95139e-015 1.59028e-014
rhumerus -94.3349 33.5877 -77.719
rradius 127.364
rwrist -53.1844
rhand 51.2804 -53.6706
rfingers 7.12502
rthumb 70.7664 -46.7908
lclavicle 7.95139e-015 1.59028e-014
lhumerus -72.8982 -41.398 59.3541
lradius 136.596
lwrist 75.0728
lhand 37.7426 0.861845
lfingers 7.12502
lthumb 60.499 14.1074
rfemur -40.9168 -9.42957 27.2666
rtibia 53.1021
rfoot -23.7505 8.33905
rtoes -17.0635
lfemur -47.4431 18.0299 -5.20683
ltibia 62.6244
lfoot -24.7037 -3.87379
ltoes -58.0307
295
root -0.953372 17.0963 4.81556 16.6986 -3.1509 -9.50987
lowerback 31.7752 1.02204 -6.81236
upperback 2.28994 -2.15834 -6.73921
thorax -14.06 -0.7547 -2.77757
lowerneck -19.7424 -2.83584 -5.6274
upperneck 24.4271 -4.27468 7.49398
head 11.5309 -1.50999 3.0497
rclavicle 3.65764e-014 3.81667e-014
rhumerus -92.8838 32.2703 -79.5856
rradius 126.961
rwrist -55.1189
rhand 46.9753 -53.7818
rfingers 7.12502
rthumb 67.8582 -55.3406
lclavicle 3.65764e-014 3.81667e-014
lhumerus -71.9773 -40.4856 61.8329
lradius 135.125
lwrist 74.0395
lhand 29.608 -3.23702
lfingers 7.12502
lthumb 53.3542 16.0285
rfemur -41.0256 -9.2999 27.1473
rtibia 53.1551
rfoot -24.022 8.23118
rtoes -17.2385
lfemur -47.4422 17.9111 -5.31721
ltibia 62.55
lfoot -25.0506 -3.91217
ltoes -57.8598
296
root -0.956114 17.0922 4.83382 16.7357 -3.21693 -9.38006
lowerback 31.3958 1.10554 -7.02282
upperback 2.13623 -2.09749 -6.73924
thorax -14.0615 -0.715814 -2.68998
lowerneck -19.6298 -2.86767 -5.62012
upperneck 24.1864 -4.36226 7.66615
head 11.429 -1.53123 3.09343
rclavicle -3.49861e-014 3.18055e-014
rhumerus -91.8526 31.4506 -81.9299
rradius 125.834
rwrist -55.0785
rhand 43.8718 -52.2756
rfingers 7.12502
rthumb 65.5164 -58.5687
lclavicle -3.49861e-014 3.18055e-014
lhumerus -71.5728 -40.2679 64.5854
lradius 133.633
lwrist 73.2592
lhand 21.4246 -7.03091
lfingers 7.12502
lthumb 45.8598 16.1218
rfemur -41.0333 -9.18261 26.9914
rtibia 53.2388
rfoot -24.2492 8.13603
rtoes -17.3537
lfemur -47.3165 17.8467 -5.43465
ltibia 62.4782
lfoot -25.3733 -3.91378
ltoes -57.8974
297
root -0.959684 17.0869 4.84787 16.6485 -3.28467 -9.34485
lowerback 31.2877 1.15309 -7.12727
upperback 1.91398 -2.09279 -6.78909
thorax -14.2716 -0.703875 -2.69486
lowerneck -19.4008 -2.8418 -5.46753
upperneck 23.924 -4.40007 7.77531
head 11.2877 -1.52775 3.09615
rclavicle 2.06736e-014 0
rhumerus -91.1255 30.9306 -84.1299
rradius 124.365
rwrist -53.7889
rhand 42.7685 -50.4036
rfingers 7.12502
rthumb 64.6465 -58.1582
lclavicle 2.06736e-014 0
lhumerus -71.5546 -40.5847 67.1738
lradius 132.034
lwrist 72.3172
lhand 15.0771 -10.8396
lfingers 7.12502
lthumb 39.9242 14.4093
rfemur -40.9343 -9.05373 26.9182
rtibia 53.3719
rfoot -24.4339 8.0445
rtoes -17.6618
lfemur -47.1191 17.8992 -5.45005
ltibia 62.4523
lfoot -25.5635 -3.77109
ltoes -58.2929
298
root -0.963809 17.0798 4.85841 16.4523 -3.36057 -9.30286
lowerback 31.3486 1.16793 -7.18386
upperback 1.74551 -2.13586 -6.88678
thorax -14.5004 -0.716803 -2.7591
lowerneck -19.3914 -2.8387 -5.29373
upperneck 23.6986 -4.4657 7.8725
head 11.2054 -1.5319 3.08702
rclavicle -7.95139e-015 2.8625e-014
rhumerus -90.78 30.6123 -85.9358
rradius 123.072
rwrist -52.6519
rhand 41.0519 -53.7913
rfingers 7.12502
rthumb 63.2613 -63.6209
lclavicle -7.95139e-015 2.8625e-014
lhumerus -71.4396 -40.987 68.9329
lradius 130.501
lwrist 71.2074
lhand 15.0037 -13.5677
lfingers 7.12502
lthumb 39.8552 11.7018
rfemur -40.7721 -8.97548 26.816
rtibia 53.5809
rfoot -24.5369 8.04684
rtoes -17.7836
lfemur -46.8324 17.9561 -5.42735
ltibia 62.4831
lfoot -25.6609 -3.84689
ltoes -58.2179
299
root -0.967795 17.0696 4.86417 16.2411 -3.45128 -9.19625
lowerback 31.4317 1.17939 -7.26733
upperback 1.64387 -2.18474 -6.96227
thorax -14.6578 -0.731473 -2.78109
lowerneck -19.6609 -2.84831 -5.29046
upperneck 23.5175 -4.49494 8.0012
head 11.1962 -1.52479 3.12512
rclavicle 1.27222e-014 -3.49861e-014
rhumerus -90.6502 30.507 -87.0704
rradius 122.121
rwrist -51.3684
rhand 38.0769 -54.8843
rfingers 7.12502
rthumb 60.7827 -67.8158
lclavicle 1.27222e-014 -3.49861e-014
lhumerus -71.3777 -41.2333 69.8416
lradius 129.499
lwrist 70.349
lhand 17.5934 -13.7136
lfingers 7.12502
lthumb 42.2869 10.7795
rfemur -40.6743 -8.97737 26.6463
rtibia 53.8884
rfoot -24.5438 8.14303
rtoes -17.723
lfemur -46.5752 18.0017 -5.46197
ltibia 62.5675
lfoot -25.7336 -4.10409
ltoes -57.9371
300
root -0.971072 17.0573 4.87064 16.0465 -3.54709 -9.05552
lowerback 31.425 1.204 -7.27925
upperback 1.62112 -2.1786 -7.07658
thorax -14.6895 -0.731579 -2.9035
lowerneck -20.0188 -2.87505 -5.28285
upperneck 23.2796 -4.53195 8.09394
head 11.1825 -1.52358 3.14652
rclavicle -2.54444e-014 -3.49861e-014
rhumerus -91.9519 30.8314 -87.5338
rradius 122.171
rwrist -49.8317
rhand 35.8919 -54.3536
rfingers 7.12502
rthumb 58.9114 -69.228
lclavicle -2.54444e-014 -3.49861e-014
lhumerus -71.5408 -41.776 69.9732
lradius 129.349
lwrist 69.2941
lhand 21.63 -11.8143
lfingers 7.12502
lthumb 46.0504 11.2592
rfemur -40.6496 -9.08101 26.4481
rtibia 54.2971
rfoot -24.4714 8.37424
rtoes -17.4745
lfemur -46.3597 18.0368 -5.5438
ltibia 62.7026
lfoot -25.8425 -4.27425
ltoes -57.8337
301
root -0.975304 17.0428 4.8773 15.8771 -3.62006 -8.88584
lowerback 31.3169 1.21791 -7.23922
upperback 1.66269 -2.1555 -7.2361
thorax -14.6068 -0.732284 -3.10744
lowerneck -20.236 -2.92976 -5.30492
upperneck 22.861 -4.60569 8.23926
head 11.0793 -1.54036 3.18254
rclavicle 2.38542e-014 -3.81667e-014
rhumerus -93.3814 31.1895 -87.2099
rradius 122.621
rwrist -48.2821
rhand 36.0832 -53.0776
rfingers 7.12502
rthumb 59.0768 -67.7919
lclavicle 2.38542e-014 -3.81667e-014
lhumerus -71.8032 -42.7732 69.0887
lradius 130.148
lwrist 69.3218
lhand 26.5511 -7.62555
lfingers 7.12502
lthumb 50.5812 13.2866
rfemur -40.7077 -9.28331 26.2457
rtibia 54.7869
rfoot -24.3101 8.6738
rtoes -17.1976
lfemur -46.2057 18.0728 -5.6703
ltibia 62.8849
lfoot -25.9497 -4.35871
ltoes -57.8793
302
root -0.982627 17.0212 4.87336 15.8631 -3.59615 -8.81532
lowerback 31.1304 1.162 -7.10384
upperback 1.68845 -2.172 -7.3445
thorax -14.5104 -0.754812 -3.28924
lowerneck -20.3016 -2.96277 -5.35145
upperneck 22.3438 -4.62406 8.33112
head 10.9056 -1.54569 3.20946
rclavicle 4.77083e-015 -9.54166e-015
rhumerus -95.2228 31.7845 -86.4594
rradius 123.545
rwrist -48.2115
rhand 37.4187 -52.8473
rfingers 7.12502
rthumb 60.2231 -66.3912
lclavicle 4.77083e-015 -9.54166e-015
lhumerus -72.618 -44.1305 67.8912
lradius 131.278
lwrist 70.3776
lhand 32.0007 -4.40023
lfingers 7.12502
lthumb 55.4961 13.3734
rfemur -41.0249 -9.43864 26.2191
rtibia 55.3234
rfoot -24.1638 8.76858
rtoes -17.4109
lfemur -46.3701 18.1403 -5.72216
ltibia 63.127
lfoot -25.929 -4.42651
ltoes -57.9895
